<svg width="13" height="9" viewBox="0 0 13 9" fill="none" xmlns="http://www.w3.org/2000/svg">
<path d="M7.18278 8.21138L12.7984 2.15154C12.9284 2.01138 13 1.82429 13 1.62479C13 1.4253 12.9284 1.2382 12.7984 1.09804L12.3849 0.651777C12.1155 0.361389 11.6777 0.361389 11.4087 0.651777L6.69299 5.74037L1.9721 0.646131C1.84211 0.505974 1.66883 0.428589 1.48406 0.428589C1.29908 0.428589 1.1258 0.505974 0.995706 0.646131L0.582352 1.0924C0.452364 1.23266 0.380754 1.41965 0.380754 1.61915C0.380754 1.81864 0.452364 2.00574 0.582352 2.14589L6.2031 8.21138C6.3335 8.35187 6.5076 8.42903 6.69269 8.42859C6.87848 8.42903 7.05248 8.35187 7.18278 8.21138Z" fill="#A43287"/>
</svg>
