<?xml version="1.0" encoding="utf-8"?>
<svg viewBox="0 0 22 22" xmlns="http://www.w3.org/2000/svg" xmlns:bx="https://boxy-svg.com">
  <path d="M 12.832 11 L 20.62 3.212 C 21.127 2.705 21.127 1.886 20.62 1.38 C 20.113 0.873 19.294 0.873 18.788 1.38 L 11 9.168 L 3.212 1.38 C 2.705 0.873 1.887 0.873 1.38 1.38 C 0.873 1.886 0.873 2.705 1.38 3.212 L 9.168 11 L 1.38 18.788 C 0.873 19.294 0.873 20.113 1.38 20.62 C 1.633 20.872 1.964 20.999 2.296 20.999 C 2.628 20.999 2.96 20.872 3.212 20.62 L 11 12.832 L 18.788 20.62 C 19.04 20.872 19.372 20.999 19.704 20.999 C 20.036 20.999 20.367 20.872 20.62 20.62 C 21.127 20.113 21.127 19.294 20.62 18.788 Z M 12.832 11" style="paint-order: fill;" bx:origin="0.5 0.500031"/>
</svg>