<svg width="13" height="9" viewBox="0 0 13 9" fill="none" xmlns="http://www.w3.org/2000/svg">
<path d="M7.18281 8.21138L12.7984 2.15154C12.9284 2.01138 13 1.82429 13 1.62479C13 1.4253 12.9284 1.2382 12.7984 1.09804L12.385 0.651777C12.1156 0.361389 11.6777 0.361389 11.4087 0.651777L6.69302 5.74037L1.97213 0.646131C1.84214 0.505974 1.66886 0.428589 1.48409 0.428589C1.29911 0.428589 1.12583 0.505974 0.995736 0.646131L0.582382 1.0924C0.452394 1.23266 0.380784 1.41965 0.380784 1.61915C0.380784 1.81864 0.452394 2.00574 0.582382 2.14589L6.20313 8.21138C6.33353 8.35187 6.50763 8.42903 6.69272 8.42859C6.87851 8.42903 7.05252 8.35187 7.18281 8.21138Z" fill="#A43287"/>
</svg>
